<?xml version="1.0" standalone="no"?>
<!DOCTYPE svg PUBLIC "-//W3C//DTD SVG 20010904//EN"
 "http://www.w3.org/TR/2001/REC-SVG-20010904/DTD/svg10.dtd">
<svg version="1.0" xmlns="http://www.w3.org/2000/svg"
 width="39.000000pt" height="61.000000pt" viewBox="0 0 39.000000 61.000000"
 preserveAspectRatio="xMidYMid meet">

<g transform="translate(0.000000,61.000000) scale(0.100000,-0.100000)"
fill="#47AADF" stroke="none">
<path d="M77 522 c-31 -32 -57 -66 -57 -77 0 -33 44 -235 51 -235 12 0 20 80
13 143 -6 61 -5 63 30 106 22 26 36 53 36 69 0 55 -14 54 -73 -6z"/>
<path d="M157 449 c-14 -19 -17 -51 -17 -185 0 -173 2 -182 58 -199 12 -3 36
-18 54 -33 25 -21 30 -23 25 -9 -4 10 -7 27 -7 38 0 11 -16 36 -35 56 l-35 36
0 142 c0 102 -4 146 -13 160 -13 17 -15 17 -30 -6z"/>
<path d="M322 435 c-17 -14 -39 -25 -51 -25 -18 0 -21 -6 -21 -39 0 -46 14
-60 39 -37 27 25 51 20 51 -10 0 -17 -17 -43 -50 -78 l-50 -53 25 -23 c14 -13
25 -18 25 -11 0 7 23 36 50 65 l50 53 0 85 c0 69 -3 87 -16 92 -21 8 -19 9
-52 -19z"/>
</g>
</svg>
